<mxfile host="app.diagrams.net" agent="Mozilla/5.0 (X11; Linux x86_64) AppleWebKit/537.36 (KHTML, like Gecko) Chrome/132.0.0.0 Safari/537.36" version="26.0.10">
  <diagram id="a45cf8ec-cd66-6f27-3ac3-be6e809c9e4a" name="Page-1">
    <mxGraphModel dx="1430" dy="777" grid="1" gridSize="10" guides="1" tooltips="1" connect="1" arrows="1" fold="1" page="1" pageScale="1" pageWidth="827" pageHeight="1169" background="none" math="0" shadow="0">
      <root>
        <mxCell id="0" />
        <mxCell id="1" parent="0" />
        <mxCell id="TuxLxeWIW4WAgvlG5Ec_-211" value="" style="rounded=1;whiteSpace=wrap;html=1;fillColor=#dae8fc;gradientColor=#7ea6e0;strokeColor=#6c8ebf;" vertex="1" parent="1">
          <mxGeometry x="10" y="210" width="810" height="200" as="geometry" />
        </mxCell>
        <mxCell id="TuxLxeWIW4WAgvlG5Ec_-209" value="" style="rounded=1;whiteSpace=wrap;html=1;fillColor=#fff2cc;gradientColor=#ffd966;strokeColor=#d6b656;" vertex="1" parent="1">
          <mxGeometry x="10" y="450" width="810" height="417" as="geometry" />
        </mxCell>
        <mxCell id="TuxLxeWIW4WAgvlG5Ec_-184" value="" style="fontColor=#0066CC;verticalAlign=top;verticalLabelPosition=bottom;labelPosition=center;align=center;html=1;outlineConnect=0;fillColor=#CCCCCC;strokeColor=#6881B3;gradientColor=none;gradientDirection=north;strokeWidth=2;shape=mxgraph.networks.server;" vertex="1" parent="1">
          <mxGeometry x="464" y="731" width="90" height="100" as="geometry" />
        </mxCell>
        <mxCell id="TuxLxeWIW4WAgvlG5Ec_-185" value="" style="fontColor=#0066CC;verticalAlign=top;verticalLabelPosition=bottom;labelPosition=center;align=center;html=1;outlineConnect=0;fillColor=#CCCCCC;strokeColor=#6881B3;gradientColor=none;gradientDirection=north;strokeWidth=2;shape=mxgraph.networks.server_storage;" vertex="1" parent="1">
          <mxGeometry x="264" y="731" width="105" height="105" as="geometry" />
        </mxCell>
        <mxCell id="TuxLxeWIW4WAgvlG5Ec_-191" style="edgeStyle=orthogonalEdgeStyle;rounded=0;orthogonalLoop=1;jettySize=auto;html=1;exitX=0.5;exitY=1;exitDx=0;exitDy=0;exitPerimeter=0;" edge="1" parent="1" source="TuxLxeWIW4WAgvlG5Ec_-188" target="TuxLxeWIW4WAgvlG5Ec_-185">
          <mxGeometry relative="1" as="geometry">
            <Array as="points">
              <mxPoint x="390" y="611" />
              <mxPoint x="390" y="671" />
              <mxPoint x="317" y="671" />
            </Array>
          </mxGeometry>
        </mxCell>
        <mxCell id="TuxLxeWIW4WAgvlG5Ec_-215" style="edgeStyle=orthogonalEdgeStyle;rounded=0;orthogonalLoop=1;jettySize=auto;html=1;exitX=0.02;exitY=0.98;exitDx=0;exitDy=0;exitPerimeter=0;" edge="1" parent="1" source="TuxLxeWIW4WAgvlG5Ec_-188" target="TuxLxeWIW4WAgvlG5Ec_-213">
          <mxGeometry relative="1" as="geometry">
            <Array as="points">
              <mxPoint x="380" y="610" />
              <mxPoint x="380" y="650" />
            </Array>
          </mxGeometry>
        </mxCell>
        <mxCell id="TuxLxeWIW4WAgvlG5Ec_-239" style="edgeStyle=orthogonalEdgeStyle;rounded=0;orthogonalLoop=1;jettySize=auto;html=1;exitX=0.98;exitY=0.51;exitDx=0;exitDy=0;exitPerimeter=0;entryX=0;entryY=0.5;entryDx=0;entryDy=0;" edge="1" parent="1" source="TuxLxeWIW4WAgvlG5Ec_-188" target="TuxLxeWIW4WAgvlG5Ec_-236">
          <mxGeometry relative="1" as="geometry" />
        </mxCell>
        <mxCell id="TuxLxeWIW4WAgvlG5Ec_-188" value="" style="fontColor=#0066CC;verticalAlign=top;verticalLabelPosition=bottom;labelPosition=center;align=center;html=1;outlineConnect=0;fillColor=#CCCCCC;strokeColor=#6881B3;gradientColor=none;gradientDirection=north;strokeWidth=2;shape=mxgraph.networks.patch_panel;" vertex="1" parent="1">
          <mxGeometry x="364" y="576" width="100" height="35" as="geometry" />
        </mxCell>
        <mxCell id="TuxLxeWIW4WAgvlG5Ec_-192" style="edgeStyle=orthogonalEdgeStyle;rounded=0;orthogonalLoop=1;jettySize=auto;html=1;entryX=0.5;entryY=0;entryDx=0;entryDy=0;entryPerimeter=0;" edge="1" parent="1" source="TuxLxeWIW4WAgvlG5Ec_-188" target="TuxLxeWIW4WAgvlG5Ec_-184">
          <mxGeometry relative="1" as="geometry">
            <Array as="points">
              <mxPoint x="440" y="671" />
              <mxPoint x="509" y="671" />
            </Array>
          </mxGeometry>
        </mxCell>
        <mxCell id="TuxLxeWIW4WAgvlG5Ec_-200" value="Ubiquiti US-48-500W" style="text;html=1;align=right;verticalAlign=middle;whiteSpace=wrap;rounded=0;" vertex="1" parent="1">
          <mxGeometry x="230" y="581" width="120" height="30" as="geometry" />
        </mxCell>
        <mxCell id="TuxLxeWIW4WAgvlG5Ec_-201" value="&lt;h1 style=&quot;margin-top: 0px;&quot;&gt;NAS&lt;/h1&gt;&lt;p&gt;My main NAS, running Proxmox as main OS with Truenas as an VM with NIC and HBA (6x3TB) as passthrough&lt;/p&gt;" style="text;html=1;whiteSpace=wrap;overflow=hidden;rounded=0;align=right;" vertex="1" parent="1">
          <mxGeometry x="70" y="723.5" width="180" height="120" as="geometry" />
        </mxCell>
        <mxCell id="TuxLxeWIW4WAgvlG5Ec_-202" value="&lt;h1 style=&quot;margin-top: 0px;&quot;&gt;Virtual server&lt;/h1&gt;&lt;p&gt;Currently my only virtualization server that is running all my container workload using Talos as the OS for the nodes.&lt;/p&gt;" style="text;html=1;whiteSpace=wrap;overflow=hidden;rounded=0;align=left;" vertex="1" parent="1">
          <mxGeometry x="570" y="723.5" width="180" height="120" as="geometry" />
        </mxCell>
        <mxCell id="TuxLxeWIW4WAgvlG5Ec_-204" value="" style="fontColor=#0066CC;verticalAlign=top;verticalLabelPosition=bottom;labelPosition=center;align=center;html=1;outlineConnect=0;fillColor=#CCCCCC;strokeColor=#6881B3;gradientColor=none;gradientDirection=north;strokeWidth=2;shape=mxgraph.networks.modem;" vertex="1" parent="1">
          <mxGeometry x="364" y="270" width="100" height="30" as="geometry" />
        </mxCell>
        <mxCell id="TuxLxeWIW4WAgvlG5Ec_-205" value="" style="group" vertex="1" connectable="0" parent="1">
          <mxGeometry x="344" y="110" width="139" height="77.22" as="geometry" />
        </mxCell>
        <mxCell id="TuxLxeWIW4WAgvlG5Ec_-183" value="" style="html=1;outlineConnect=0;fillColor=#CCCCCC;strokeColor=#6881B3;gradientColor=none;gradientDirection=north;strokeWidth=2;shape=mxgraph.networks.cloud;fontColor=#ffffff;" vertex="1" parent="TuxLxeWIW4WAgvlG5Ec_-205">
          <mxGeometry width="139" height="77.22" as="geometry" />
        </mxCell>
        <mxCell id="TuxLxeWIW4WAgvlG5Ec_-197" value="INTERNET" style="text;html=1;align=center;verticalAlign=middle;whiteSpace=wrap;rounded=0;fillColor=none;fontStyle=1" vertex="1" parent="TuxLxeWIW4WAgvlG5Ec_-205">
          <mxGeometry x="40" y="33.22" width="60" height="30" as="geometry" />
        </mxCell>
        <mxCell id="TuxLxeWIW4WAgvlG5Ec_-206" style="edgeStyle=orthogonalEdgeStyle;rounded=0;orthogonalLoop=1;jettySize=auto;html=1;exitX=0.5;exitY=1;exitDx=0;exitDy=0;exitPerimeter=0;" edge="1" parent="1" source="TuxLxeWIW4WAgvlG5Ec_-183" target="TuxLxeWIW4WAgvlG5Ec_-204">
          <mxGeometry relative="1" as="geometry" />
        </mxCell>
        <mxCell id="TuxLxeWIW4WAgvlG5Ec_-208" value="ISP Fiber converter" style="text;html=1;align=right;verticalAlign=middle;whiteSpace=wrap;rounded=0;" vertex="1" parent="1">
          <mxGeometry x="240" y="270" width="110" height="30" as="geometry" />
        </mxCell>
        <mxCell id="TuxLxeWIW4WAgvlG5Ec_-210" value="Server room" style="text;html=1;align=left;verticalAlign=middle;whiteSpace=wrap;rounded=0;fontStyle=1;fontSize=20;" vertex="1" parent="1">
          <mxGeometry x="40" y="490" width="130" height="30" as="geometry" />
        </mxCell>
        <mxCell id="TuxLxeWIW4WAgvlG5Ec_-213" value="" style="fontColor=#0066CC;verticalAlign=top;verticalLabelPosition=bottom;labelPosition=center;align=center;html=1;outlineConnect=0;fillColor=#CCCCCC;strokeColor=#6881B3;gradientColor=none;gradientDirection=north;strokeWidth=2;shape=mxgraph.networks.external_storage;" vertex="1" parent="1">
          <mxGeometry x="139" y="616" width="63" height="70" as="geometry" />
        </mxCell>
        <mxCell id="TuxLxeWIW4WAgvlG5Ec_-217" value="&lt;h1 style=&quot;margin-top: 0px;&quot;&gt;PiHole&lt;/h1&gt;&lt;div&gt;Used for&lt;/div&gt;&lt;div&gt;Ad-blocking and local DNS&lt;/div&gt;" style="text;html=1;whiteSpace=wrap;overflow=hidden;rounded=0;align=right;" vertex="1" parent="1">
          <mxGeometry x="30" y="598" width="99" height="120" as="geometry" />
        </mxCell>
        <mxCell id="TuxLxeWIW4WAgvlG5Ec_-218" value="&lt;h1 style=&quot;margin-top: 0px;&quot;&gt;House&lt;/h1&gt;&lt;p&gt;In the house that is separated from where I store my homelab most things are wireless except for the livingroom TV.&lt;/p&gt;" style="text;html=1;whiteSpace=wrap;overflow=hidden;rounded=0;" vertex="1" parent="1">
          <mxGeometry x="590" y="250" width="180" height="120" as="geometry" />
        </mxCell>
        <mxCell id="TuxLxeWIW4WAgvlG5Ec_-230" style="edgeStyle=orthogonalEdgeStyle;rounded=0;orthogonalLoop=1;jettySize=auto;html=1;exitX=0.27;exitY=0;exitDx=0;exitDy=0;exitPerimeter=0;entryX=1;entryY=0.5;entryDx=0;entryDy=0;" edge="1" parent="1" source="TuxLxeWIW4WAgvlG5Ec_-219" target="TuxLxeWIW4WAgvlG5Ec_-227">
          <mxGeometry relative="1" as="geometry" />
        </mxCell>
        <mxCell id="TuxLxeWIW4WAgvlG5Ec_-231" style="edgeStyle=orthogonalEdgeStyle;rounded=0;orthogonalLoop=1;jettySize=auto;html=1;exitX=0.27;exitY=0;exitDx=0;exitDy=0;exitPerimeter=0;entryX=1;entryY=0.5;entryDx=0;entryDy=0;" edge="1" parent="1" source="TuxLxeWIW4WAgvlG5Ec_-219" target="TuxLxeWIW4WAgvlG5Ec_-223">
          <mxGeometry relative="1" as="geometry">
            <Array as="points">
              <mxPoint x="400" y="490" />
              <mxPoint x="400" y="320" />
              <mxPoint x="230" y="320" />
              <mxPoint x="230" y="275" />
            </Array>
          </mxGeometry>
        </mxCell>
        <mxCell id="TuxLxeWIW4WAgvlG5Ec_-219" value="" style="fontColor=#0066CC;verticalAlign=top;verticalLabelPosition=bottom;labelPosition=center;align=center;html=1;outlineConnect=0;fillColor=#CCCCCC;strokeColor=#6881B3;gradientColor=none;gradientDirection=north;strokeWidth=2;shape=mxgraph.networks.patch_panel;" vertex="1" parent="1">
          <mxGeometry x="364" y="490" width="100" height="35" as="geometry" />
        </mxCell>
        <mxCell id="TuxLxeWIW4WAgvlG5Ec_-220" value="Ubiquiti Dream Machine Pro" style="text;html=1;align=right;verticalAlign=middle;whiteSpace=wrap;rounded=0;" vertex="1" parent="1">
          <mxGeometry x="180" y="492.5" width="170" height="30" as="geometry" />
        </mxCell>
        <mxCell id="TuxLxeWIW4WAgvlG5Ec_-221" style="edgeStyle=orthogonalEdgeStyle;rounded=0;orthogonalLoop=1;jettySize=auto;html=1;exitX=0.5;exitY=1;exitDx=0;exitDy=0;exitPerimeter=0;entryX=0.5;entryY=0;entryDx=0;entryDy=0;entryPerimeter=0;" edge="1" parent="1" source="TuxLxeWIW4WAgvlG5Ec_-219" target="TuxLxeWIW4WAgvlG5Ec_-188">
          <mxGeometry relative="1" as="geometry" />
        </mxCell>
        <mxCell id="TuxLxeWIW4WAgvlG5Ec_-222" style="edgeStyle=orthogonalEdgeStyle;rounded=0;orthogonalLoop=1;jettySize=auto;html=1;entryX=0.5;entryY=0;entryDx=0;entryDy=0;entryPerimeter=0;" edge="1" parent="1" source="TuxLxeWIW4WAgvlG5Ec_-204" target="TuxLxeWIW4WAgvlG5Ec_-219">
          <mxGeometry relative="1" as="geometry" />
        </mxCell>
        <mxCell id="TuxLxeWIW4WAgvlG5Ec_-226" value="" style="group;movable=1;resizable=1;rotatable=1;deletable=1;editable=1;locked=0;connectable=1;" vertex="1" connectable="0" parent="1">
          <mxGeometry x="147" y="320" width="70" height="70" as="geometry" />
        </mxCell>
        <mxCell id="TuxLxeWIW4WAgvlG5Ec_-227" value="" style="ellipse;whiteSpace=wrap;html=1;aspect=fixed;fillColor=light-dark(#3E3E3E,#3E3E3E);strokeColor=light-dark(#000000,#6B81AC);movable=1;resizable=1;rotatable=1;deletable=1;editable=1;locked=0;connectable=1;" vertex="1" parent="TuxLxeWIW4WAgvlG5Ec_-226">
          <mxGeometry width="70" height="70" as="geometry" />
        </mxCell>
        <mxCell id="TuxLxeWIW4WAgvlG5Ec_-228" value="" style="ellipse;whiteSpace=wrap;html=1;aspect=fixed;fillColor=light-dark(#3E3E3E,#3E3E3E);strokeColor=light-dark(#000000,#6B81AC);movable=1;resizable=1;rotatable=1;deletable=1;editable=1;locked=0;connectable=1;" vertex="1" parent="TuxLxeWIW4WAgvlG5Ec_-226">
          <mxGeometry x="17.5" y="17.5" width="35" height="35" as="geometry" />
        </mxCell>
        <mxCell id="TuxLxeWIW4WAgvlG5Ec_-232" value="UniFi 6U Pro" style="text;html=1;align=right;verticalAlign=middle;whiteSpace=wrap;rounded=0;" vertex="1" parent="1">
          <mxGeometry x="60" y="340" width="79" height="30" as="geometry" />
        </mxCell>
        <mxCell id="TuxLxeWIW4WAgvlG5Ec_-233" value="" style="group" vertex="1" connectable="0" parent="1">
          <mxGeometry x="147" y="240" width="70" height="70" as="geometry" />
        </mxCell>
        <mxCell id="TuxLxeWIW4WAgvlG5Ec_-223" value="" style="ellipse;whiteSpace=wrap;html=1;aspect=fixed;fillColor=light-dark(#3E3E3E,#3E3E3E);strokeColor=light-dark(#000000,#6B81AC);movable=1;resizable=1;rotatable=1;deletable=1;editable=1;locked=0;connectable=1;" vertex="1" parent="TuxLxeWIW4WAgvlG5Ec_-233">
          <mxGeometry width="70" height="70" as="geometry" />
        </mxCell>
        <mxCell id="TuxLxeWIW4WAgvlG5Ec_-224" value="" style="ellipse;whiteSpace=wrap;html=1;aspect=fixed;fillColor=light-dark(#3E3E3E,#3E3E3E);strokeColor=light-dark(#000000,#6B81AC);movable=1;resizable=1;rotatable=1;deletable=1;editable=1;locked=0;connectable=1;" vertex="1" parent="TuxLxeWIW4WAgvlG5Ec_-233">
          <mxGeometry x="16.5" y="17.5" width="35" height="35" as="geometry" />
        </mxCell>
        <mxCell id="TuxLxeWIW4WAgvlG5Ec_-234" value="UniFi 6U Pro" style="text;html=1;align=right;verticalAlign=middle;whiteSpace=wrap;rounded=0;" vertex="1" parent="1">
          <mxGeometry x="60" y="260" width="79" height="30" as="geometry" />
        </mxCell>
        <mxCell id="TuxLxeWIW4WAgvlG5Ec_-235" value="" style="group" vertex="1" connectable="0" parent="1">
          <mxGeometry x="554" y="558.5" width="70" height="70" as="geometry" />
        </mxCell>
        <mxCell id="TuxLxeWIW4WAgvlG5Ec_-236" value="" style="ellipse;whiteSpace=wrap;html=1;aspect=fixed;fillColor=light-dark(#3E3E3E,#3E3E3E);strokeColor=light-dark(#000000,#6B81AC);movable=1;resizable=1;rotatable=1;deletable=1;editable=1;locked=0;connectable=1;" vertex="1" parent="TuxLxeWIW4WAgvlG5Ec_-235">
          <mxGeometry width="70" height="70" as="geometry" />
        </mxCell>
        <mxCell id="TuxLxeWIW4WAgvlG5Ec_-237" value="" style="ellipse;whiteSpace=wrap;html=1;aspect=fixed;fillColor=light-dark(#3E3E3E,#3E3E3E);strokeColor=light-dark(#000000,#6B81AC);movable=1;resizable=1;rotatable=1;deletable=1;editable=1;locked=0;connectable=1;" vertex="1" parent="TuxLxeWIW4WAgvlG5Ec_-235">
          <mxGeometry x="16.5" y="17.5" width="35" height="35" as="geometry" />
        </mxCell>
        <mxCell id="TuxLxeWIW4WAgvlG5Ec_-238" value="UniFi 6U Pro" style="text;html=1;align=right;verticalAlign=middle;whiteSpace=wrap;rounded=0;" vertex="1" parent="1">
          <mxGeometry x="630" y="578.5" width="79" height="30" as="geometry" />
        </mxCell>
        <mxCell id="TuxLxeWIW4WAgvlG5Ec_-240" style="edgeStyle=orthogonalEdgeStyle;rounded=0;orthogonalLoop=1;jettySize=auto;html=1;exitX=0.5;exitY=1;exitDx=0;exitDy=0;exitPerimeter=0;entryX=0.88;entryY=0.5;entryDx=0;entryDy=0;entryPerimeter=0;" edge="1" parent="1">
          <mxGeometry relative="1" as="geometry">
            <mxPoint x="415" y="611" as="sourcePoint" />
            <mxPoint x="357.4000000000001" y="783.5" as="targetPoint" />
            <Array as="points">
              <mxPoint x="415" y="784" />
            </Array>
          </mxGeometry>
        </mxCell>
      </root>
    </mxGraphModel>
  </diagram>
</mxfile>
